<svg width="930" height="930" viewBox="0 0 930 930" fill="none" xmlns="http://www.w3.org/2000/svg">
<path d="M162.877 253.998L473.752 95.9361C492.521 86.3931 515.472 93.8723 525.015 112.641L762.108 578.954C771.651 597.723 764.171 620.674 745.402 630.217L434.527 788.279C415.758 797.822 392.807 790.343 383.264 771.573L146.172 305.261C136.629 286.492 144.108 263.541 162.877 253.998Z" stroke="#C5C5C5" stroke-width="40"/>
<path d="M386.969 117.624L516.5 51.7646L582.359 181.296L386.969 117.624Z" fill="#949494"/>
<path d="M466.176 273.409L258.926 378.783C251.773 382.421 248.922 391.169 252.559 398.322L255.852 404.799C259.489 411.953 268.237 414.803 275.391 411.166L482.641 305.792C489.795 302.155 492.646 293.407 489.008 286.253L485.715 279.776C482.078 272.622 473.33 269.772 466.176 273.409Z" fill="#C5C5C5"/>
<path d="M473.241 383.49L304.851 469.107C297.697 472.744 294.846 481.492 298.483 488.646L301.776 495.123C305.414 502.276 314.162 505.127 321.315 501.49L489.706 415.873C496.86 412.236 499.71 403.488 496.073 396.334L492.78 389.858C489.143 382.704 480.395 379.853 473.241 383.49Z" fill="#C5C5C5"/>
<path d="M545.072 460.642L350.775 559.431C343.621 563.068 340.77 571.816 344.408 578.97L347.701 585.446C351.338 592.6 360.086 595.451 367.24 591.813L561.536 493.025C568.69 489.388 571.541 480.64 567.904 473.486L564.611 467.009C560.973 459.856 552.225 457.005 545.072 460.642Z" fill="#C5C5C5"/>
<path d="M827.945 0H514.945V930H827.945V0Z" fill="#C5C5C5"/>
</svg>
